<svg version="1.0" xmlns="http://www.w3.org/2000/svg"
 width="1024.000000pt" height="437.000000pt" viewBox="0 0 1024.000000 437.000000"
 preserveAspectRatio="xMidYMid meet">

<g transform="translate(0.000000,437.000000) scale(0.100000,-0.100000)"
fill="#000000" stroke="none">
<path d="M2242 2458 c-17 -17 -15 -73 4 -89 35 -29 69 34 44 81 -12 23 -30 26
-48 8z m38 -43 c0 -24 -5 -35 -15 -35 -10 0 -15 11 -15 35 0 24 5 35 15 35 10
0 15 -11 15 -35z"/>
<path d="M2319 2454 c-11 -13 -9 -14 14 -9 28 8 35 -3 15 -23 -9 -9 -9 -12 0
-12 7 0 12 -7 12 -16 0 -13 -6 -15 -27 -9 -26 6 -27 5 -12 -10 11 -11 24 -15
38 -10 17 5 20 13 18 43 -4 60 -29 81 -58 46z"/>
<path d="M2492 2463 c13 -3 18 -18 21 -56 l3 -52 2 52 c2 40 6 53 20 56 9 3
-1 5 -23 5 -22 0 -32 -2 -23 -5z"/>
<path d="M2573 2415 c0 -33 2 -45 4 -27 2 18 2 45 0 60 -2 15 -4 0 -4 -33z"/>
<path d="M2162 2428 c-23 -35 -20 -48 8 -48 10 0 21 -6 23 -12 7 -18 29 12 22
30 -3 8 -5 25 -5 38 0 34 -24 30 -48 -8z m28 -8 c0 -11 -7 -20 -15 -20 -13 0
-14 4 -5 20 6 11 13 20 15 20 3 0 5 -9 5 -20z"/>
<path d="M2739 2449 c-2 -29 3 -74 9 -81 4 -4 6 13 5 38 -1 43 -12 74 -14 43z"/>
<path d="M3223 2400 c0 -25 2 -35 4 -22 2 12 2 32 0 45 -2 12 -4 2 -4 -23z"/>
<path d="M3273 2400 c0 -25 2 -35 4 -22 2 12 2 32 0 45 -2 12 -4 2 -4 -23z"/>
<path d="M2623 2395 c0 -22 2 -30 4 -17 2 12 2 30 0 40 -3 9 -5 -1 -4 -23z"/>
<path d="M2701 2414 c0 -11 3 -14 6 -6 3 7 2 16 -1 19 -3 4 -6 -2 -5 -13z"/>
<path d="M3165 2410 l-30 -8 33 -1 c17 0 32 4 32 9 0 6 -1 9 -2 9 -2 -1 -16
-5 -33 -9z"/>
<path d="M2700 2381 c0 -6 4 -13 10 -16 6 -3 7 1 4 9 -7 18 -14 21 -14 7z"/>
<path d="M2400 2370 c0 -5 5 -10 10 -10 6 0 10 5 10 10 0 6 -4 10 -10 10 -5 0
-10 -4 -10 -10z"/>
<path d="M2150 2024 c0 -5 7 -19 15 -30 8 -10 15 -31 15 -46 0 -16 5 -28 10
-28 6 0 10 12 10 26 0 14 9 39 21 55 11 16 15 29 9 29 -6 0 -16 -12 -22 -26
l-12 -26 -23 28 c-13 16 -23 24 -23 18z"/>
<path d="M2583 1975 c0 -33 2 -45 4 -27 2 18 2 45 0 60 -2 15 -4 0 -4 -33z"/>
<path d="M2950 2012 c0 -13 -7 -18 -21 -18 -12 1 -26 -7 -33 -16 -15 -25 4
-53 38 -54 25 -1 26 1 26 52 0 30 -2 54 -5 54 -3 0 -5 -8 -5 -18z m-2 -46 c6
-29 -15 -43 -35 -24 -14 14 -14 20 -3 33 16 19 34 15 38 -9z"/>
<path d="M3522 1975 c1 -47 2 -52 7 -25 4 22 12 35 21 35 9 0 18 -13 22 -35
l6 -35 -1 40 c-2 33 -6 40 -22 40 -11 0 -23 9 -27 20 -3 11 -6 -7 -6 -40z"/>
<path d="M5072 1983 c-2 -49 0 -53 23 -59 38 -10 55 11 53 65 l-1 46 -4 -42
c-8 -80 -59 -85 -66 -6 l-3 48 -2 -52z"/>
<path d="M5170 1975 c0 -30 5 -55 10 -55 6 0 10 12 10 26 0 21 4 25 23 22 14
-2 23 -11 25 -25 2 -13 8 -23 13 -23 11 0 11 8 0 35 -5 11 -4 25 1 33 16 19
-10 42 -48 42 l-34 0 0 -55z m70 25 c0 -15 -7 -20 -25 -20 -18 0 -25 5 -25 20
0 15 7 20 25 20 18 0 25 -5 25 -20z"/>
<path d="M5280 1975 l0 -55 38 1 c30 2 32 3 10 6 -26 4 -28 8 -28 54 0 27 -4
49 -10 49 -5 0 -10 -25 -10 -55z"/>
<path d="M5423 1975 c0 -33 2 -50 4 -37 5 28 19 28 33 1 7 -11 14 -18 17 -15
3 3 0 12 -7 21 -7 8 -10 24 -7 36 5 20 5 20 -13 4 -18 -16 -19 -15 -23 17 -2
18 -4 6 -4 -27z"/>
<path d="M2818 2010 c-5 -17 3 -90 11 -90 3 0 5 21 4 46 -1 46 -8 65 -15 44z"/>
<path d="M3428 2007 c-8 -23 7 -80 22 -85 12 -4 13 -2 3 9 -15 15 -17 56 -4
61 5 2 3 8 -4 15 -10 9 -14 9 -17 0z"/>
<path d="M4649 2009 c-2 -29 3 -74 9 -81 4 -4 6 13 5 38 -1 43 -12 74 -14 43z"/>
<path d="M4978 2007 c-8 -23 7 -80 22 -85 12 -4 13 -2 3 9 -15 15 -17 56 -4
61 5 2 3 8 -4 15 -10 9 -14 9 -17 0z"/>
<path d="M2254 1986 c-3 -8 -4 -25 -2 -38 2 -17 9 -23 28 -23 22 0 25 4 25 35
0 29 -4 36 -23 38 -13 2 -24 -3 -28 -12z m41 -26 c0 -27 -22 -39 -31 -16 -8
22 3 49 19 43 6 -2 12 -14 12 -27z"/>
<path d="M2333 1965 c2 -36 5 -40 30 -43 26 -3 27 -2 26 40 -2 43 -2 43 -8 8
-4 -22 -12 -35 -21 -35 -9 0 -18 13 -22 35 l-6 35 1 -40z"/>
<path d="M2421 1956 c2 -34 3 -36 6 -11 3 17 9 35 14 41 5 7 3 11 -6 11 -11 0
-15 -11 -14 -41z"/>
<path d="M2510 1980 c-8 -14 -8 -26 0 -40 13 -24 33 -26 51 -3 13 15 12 15 -9
2 -20 -12 -24 -12 -32 0 -12 20 7 54 26 47 9 -3 12 -1 9 4 -10 17 -34 11 -45
-10z"/>
<path d="M2623 1960 c0 -25 2 -35 4 -22 2 12 2 32 0 45 -2 12 -4 2 -4 -23z"/>
<path d="M2652 1983 c-15 -28 3 -65 30 -61 12 2 24 10 26 18 5 13 3 13 -11 2
-9 -8 -21 -11 -27 -7 -19 11 -10 25 16 25 19 0 25 5 22 18 -4 24 -44 28 -56 5z
m43 -3 c3 -5 -3 -10 -15 -10 -12 0 -18 5 -15 10 3 6 10 10 15 10 5 0 12 -4 15
-10z"/>
<path d="M2731 1955 c1 -41 3 -40 13 8 9 41 34 34 39 -10 l4 -38 1 43 c2 41 1
42 -28 40 -28 -2 -30 -5 -29 -43z"/>
<path d="M2990 1985 c-26 -31 13 -82 44 -56 19 16 21 42 4 59 -16 16 -33 15
-48 -3z m44 -10 c8 -21 -3 -45 -20 -45 -8 0 -17 7 -20 15 -8 21 2 45 20 45 7
0 16 -7 20 -15z"/>
<path d="M3070 1985 c-15 -18 -10 -45 12 -59 14 -8 21 -7 35 9 17 18 17 18 0
5 -15 -11 -20 -11 -35 3 -15 16 -14 17 16 17 34 0 45 23 16 34 -23 9 -30 8
-44 -9z m45 -5 c3 -5 -3 -10 -14 -10 -12 0 -21 5 -21 10 0 6 6 10 14 10 8 0
18 -4 21 -10z"/>
<path d="M3157 1993 c-13 -13 -7 -31 13 -36 11 -3 20 -11 20 -17 0 -8 -8 -10
-21 -7 -16 4 -19 3 -11 -5 14 -14 42 -3 42 16 0 8 -9 18 -20 21 -26 8 -26 29
0 22 11 -3 18 -1 14 4 -6 11 -28 12 -37 2z"/>
<path d="M3271 1956 l2 -41 6 35 c4 22 12 35 21 35 9 0 18 -13 22 -35 l6 -35
-1 40 c-2 36 -5 40 -29 41 -26 1 -28 -1 -27 -40z"/>
<path d="M3350 1980 c-15 -28 4 -62 33 -58 16 2 23 11 25 32 5 44 -38 64 -58
26z m45 -20 c0 -27 -22 -39 -31 -16 -8 22 3 49 19 43 6 -2 12 -14 12 -27z"/>
<path d="M3605 1990 c-5 -9 -1 -10 13 -6 11 4 23 2 27 -4 3 -5 0 -10 -7 -10
-10 0 -10 -2 1 -9 16 -11 6 -31 -16 -31 -9 0 -13 6 -9 15 3 8 1 15 -4 15 -6 0
-10 -9 -10 -20 0 -16 6 -19 33 -18 33 1 33 2 28 37 -5 27 -12 37 -28 39 -11 2
-24 -2 -28 -8z"/>
<path d="M3682 1968 c17 -52 26 -55 43 -14 9 21 14 40 11 43 -3 3 -11 -10 -19
-28 l-14 -34 -7 33 c-4 17 -11 32 -16 32 -5 0 -4 -15 2 -32z"/>
<path d="M3760 1985 c-15 -18 -10 -45 12 -59 14 -8 21 -7 35 9 17 18 17 18 0
5 -15 -11 -20 -11 -35 3 -15 16 -14 17 16 17 34 0 45 23 16 34 -23 9 -30 8
-44 -9z m45 -5 c3 -5 -3 -10 -14 -10 -12 0 -21 5 -21 10 0 6 6 10 14 10 8 0
18 -4 21 -10z"/>
<path d="M3881 1941 c1 -32 4 -48 7 -36 4 11 16 20 26 20 51 0 43 69 -8 71
-25 1 -26 -1 -25 -55z m49 33 c11 -12 11 -18 -2 -31 -19 -18 -38 -10 -38 16 0
33 20 40 40 15z"/>
<path d="M3970 1985 c-15 -18 -10 -45 12 -59 14 -8 21 -7 35 9 17 18 17 18 0
5 -15 -11 -20 -11 -35 3 -15 16 -14 17 16 17 34 0 45 23 16 34 -23 9 -30 8
-44 -9z m45 -5 c3 -5 -3 -10 -14 -10 -12 0 -21 5 -21 10 0 6 6 10 14 10 8 0
18 -4 21 -10z"/>
<path d="M4051 1956 c2 -34 3 -36 6 -11 3 17 9 35 14 41 5 7 3 11 -6 11 -11 0
-15 -11 -14 -41z"/>
<path d="M4101 1956 l2 -41 6 34 c8 48 31 53 31 7 0 -20 5 -36 10 -36 6 0 10
16 10 36 0 46 22 41 32 -7 6 -34 6 -34 5 6 l-2 40 -47 1 -48 1 1 -41z"/>
<path d="M4223 1960 c0 -25 2 -35 4 -22 2 12 2 32 0 45 -2 12 -4 2 -4 -23z"/>
<path d="M4256 1985 c-4 -10 3 -20 19 -27 34 -15 32 -32 -2 -23 -21 5 -25 4
-17 -5 7 -7 20 -10 30 -8 26 5 29 34 4 41 -11 3 -20 10 -20 17 0 7 8 9 21 5
15 -5 19 -4 15 4 -10 16 -43 13 -50 -4z"/>
<path d="M4337 1993 c-15 -14 -6 -31 18 -37 15 -4 23 -11 19 -17 -3 -6 -15 -8
-27 -5 -14 3 -17 2 -9 -6 11 -11 52 -2 52 13 0 5 -11 14 -25 21 -25 11 -24 34
2 24 8 -3 11 -1 8 4 -7 11 -28 13 -38 3z"/>
<path d="M4413 1960 c0 -25 2 -35 4 -22 2 12 2 32 0 45 -2 12 -4 2 -4 -23z"/>
<path d="M4440 1980 c-15 -28 4 -62 33 -58 16 2 23 11 25 32 5 44 -38 64 -58
26z m45 -20 c0 -27 -22 -39 -31 -16 -8 22 3 49 19 43 6 -2 12 -14 12 -27z"/>
<path d="M4521 1955 c1 -41 3 -40 13 8 9 41 34 34 39 -10 l4 -38 1 43 c2 41 1
42 -28 40 -28 -2 -30 -5 -29 -43z"/>
<path d="M4690 1980 c-15 -28 4 -62 33 -58 16 2 23 11 25 32 5 44 -38 64 -58
26z m45 -20 c0 -27 -22 -39 -31 -16 -8 22 3 49 19 43 6 -2 12 -14 12 -27z"/>
<path d="M4821 1987 c-24 -24 2 -79 30 -61 7 4 10 2 7 -7 -3 -8 -16 -13 -29
-11 -17 2 -21 0 -12 -9 6 -6 19 -9 29 -7 15 2 20 14 22 53 2 44 0 51 -16 52
-11 1 -25 -4 -31 -10z m34 -27 c0 -27 -22 -39 -31 -16 -8 22 3 49 19 43 6 -2
12 -14 12 -27z"/>
<path d="M4900 1985 c-15 -18 -10 -45 12 -59 14 -8 21 -7 35 9 17 18 17 18 0
5 -15 -11 -20 -11 -35 3 -15 16 -14 17 16 17 34 0 45 23 16 34 -23 9 -30 8
-44 -9z m45 -5 c3 -5 -3 -10 -14 -10 -12 0 -21 5 -21 10 0 6 6 10 14 10 8 0
18 -4 21 -10z"/>
<path d="M5500 1985 c-15 -18 -10 -45 12 -59 14 -8 21 -7 35 9 17 18 17 18 0
5 -15 -11 -20 -11 -35 3 -15 16 -14 17 16 17 34 0 45 23 16 34 -23 9 -30 8
-44 -9z m45 -5 c3 -5 -3 -10 -14 -10 -12 0 -21 5 -21 10 0 6 6 10 14 10 8 0
18 -4 21 -10z"/>
<path d="M5582 1983 c-15 -28 3 -65 30 -61 12 2 24 10 26 18 5 13 3 13 -11 2
-9 -8 -21 -11 -27 -7 -19 11 -10 25 16 25 19 0 25 5 22 18 -4 24 -44 28 -56 5z
m43 -3 c3 -5 -3 -10 -15 -10 -12 0 -18 5 -15 10 3 6 10 10 15 10 5 0 12 -4 15
-10z"/>
<path d="M5661 1941 c1 -32 4 -48 7 -36 4 11 16 20 26 20 51 0 43 69 -8 71
-25 1 -26 -1 -25 -55z m54 19 c0 -15 -6 -26 -16 -28 -19 -3 -31 21 -22 43 9
25 38 13 38 -15z"/>
<path d="M5748 1963 c6 -2 18 -2 25 0 6 3 1 5 -13 5 -14 0 -19 -2 -12 -5z"/>
<path d="M2151 1760 c-1 -53 0 -56 24 -58 33 -2 55 39 35 63 -8 9 -22 14 -31
12 -12 -3 -19 2 -22 17 -2 11 -5 -4 -6 -34z m49 -6 c11 -12 11 -18 -2 -31 -19
-18 -38 -10 -38 16 0 33 20 40 40 15z"/>
<path d="M2231 1759 c-1 -54 0 -56 25 -55 51 2 59 71 8 71 -10 0 -22 9 -26 20
-3 12 -6 -4 -7 -36z m54 -19 c0 -28 -29 -40 -38 -15 -9 22 3 46 22 43 10 -2
16 -13 16 -28z"/>
<path d="M2393 1755 c0 -33 2 -50 4 -37 6 28 17 28 35 0 14 -21 38 -18 38 5 0
8 -3 8 -9 -1 -12 -19 -35 12 -28 39 5 20 5 20 -13 4 -18 -16 -19 -15 -23 17
-2 18 -4 6 -4 -27z"/>
<path d="M2535 1798 c-26 -73 -33 -98 -25 -98 6 0 10 7 10 15 0 21 46 19 54
-1 4 -9 9 -14 12 -11 8 8 -28 107 -38 107 -5 0 -11 -6 -13 -12z m25 -45 c0 -7
-7 -13 -16 -13 -11 0 -14 5 -10 16 3 9 6 21 6 27 0 16 20 -14 20 -30z"/>
<path d="M2628 1799 c-22 -12 -24 -71 -3 -89 9 -7 26 -9 45 -5 23 5 30 12 30
31 0 19 -5 24 -22 23 -18 -1 -19 -2 -5 -6 21 -5 18 -22 -5 -37 -37 -23 -66 46
-32 75 12 10 20 10 35 1 26 -16 34 -15 19 3 -14 17 -37 19 -62 4z"/>
<path d="M2722 1755 c-1 -49 1 -56 9 -35 l10 25 19 -25 c21 -27 26 -21 9 11
-7 15 -7 24 2 35 6 8 7 14 1 14 -5 0 -16 -7 -23 -17 -13 -15 -15 -13 -20 18
-5 26 -7 21 -7 -26z"/>
<path d="M2805 1799 c-11 -17 -8 -80 4 -92 31 -31 69 54 40 89 -14 17 -35 18
-44 3z m40 -45 c0 -28 -4 -39 -15 -39 -16 0 -26 45 -16 72 11 28 31 7 31 -33z"/>
<path d="M2316 1765 c-4 -10 3 -20 19 -27 34 -15 32 -32 -2 -23 -21 5 -25 4
-17 -5 7 -7 20 -10 30 -8 26 5 29 34 4 41 -11 3 -20 10 -20 17 0 7 8 9 21 5
15 -5 19 -4 15 4 -10 16 -43 13 -50 -4z"/>
<path d="M2898 1771 l24 -6 -21 -27 c-28 -35 -27 -38 12 -37 23 1 26 3 10 6
-28 5 -29 15 -3 38 28 26 25 35 -12 34 -29 -1 -30 -2 -10 -8z"/>
<path d="M2968 1743 c7 -3 16 -2 19 1 4 3 -2 6 -13 5 -11 0 -14 -3 -6 -6z"/>
<path d="M2150 1536 c0 -31 5 -56 10 -56 6 0 10 11 10 24 0 19 6 25 28 28 21
2 27 8 27 28 0 22 -5 25 -37 28 l-38 3 0 -55z m65 24 c0 -8 -10 -16 -22 -18
-18 -3 -23 2 -23 18 0 16 5 21 23 18 12 -2 22 -10 22 -18z"/>
<path d="M2343 1535 c0 -33 2 -45 4 -27 2 18 2 45 0 60 -2 15 -4 0 -4 -33z"/>
<path d="M2380 1535 l0 -55 38 2 c36 1 36 1 5 5 -24 3 -33 9 -33 23 0 14 9 20
33 23 l32 4 -32 1 c-25 2 -33 7 -33 21 0 15 8 21 33 24 31 4 31 4 -5 5 l-38 2
0 -55z"/>
<path d="M2484 1578 c-5 -7 -10 -30 -11 -50 -2 -30 1 -38 18 -43 26 -9 55 17
43 36 -4 8 -8 25 -8 39 -1 27 -29 40 -42 18z m34 -21 c2 -10 -3 -17 -12 -17
-10 0 -16 9 -16 21 0 24 23 21 28 -4z m10 -44 c5 -17 -26 -29 -40 -15 -6 6 -7
15 -3 22 9 14 37 9 43 -7z"/>
<path d="M2576 1577 c-24 -17 -24 -67 0 -84 17 -12 74 -15 71 -3 0 3 3 15 7
28 5 15 2 31 -8 47 -18 28 -43 32 -70 12z m60 -23 c13 -18 12 -24 -6 -44 -17
-19 -25 -22 -38 -14 -21 14 -27 51 -11 70 16 19 38 14 55 -12z"/>
<path d="M2686 1564 c16 -24 16 -27 0 -55 -9 -16 -13 -29 -7 -29 5 0 13 9 16
20 3 11 10 20 15 20 5 0 14 -9 20 -20 6 -11 15 -20 21 -20 6 0 1 12 -10 27
-20 24 -20 28 -6 49 21 33 18 44 -4 15 l-19 -24 -13 21 c-8 12 -17 22 -22 22
-4 0 0 -12 9 -26z"/>
<path d="M2782 1578 c-17 -17 -15 -73 3 -88 34 -28 68 27 46 76 -12 26 -30 31
-49 12z m39 -22 c11 -24 -2 -66 -21 -66 -13 0 -23 38 -16 66 8 31 23 31 37 0z"/>
<path d="M2979 1556 c12 -18 22 -44 22 -57 l1 -24 7 25 c3 14 14 41 24 60 l18
35 -25 -29 -25 -30 -12 27 c-7 15 -16 27 -21 27 -5 0 0 -15 11 -34z"/>
<path d="M3152 1535 c1 -47 2 -52 7 -25 4 22 12 35 21 35 9 0 18 -13 22 -35
l6 -35 -1 40 c-2 33 -6 40 -22 40 -11 0 -23 9 -27 20 -3 11 -6 -7 -6 -40z"/>
<path d="M3390 1535 c0 -54 0 -55 29 -55 36 0 61 23 61 55 0 32 -25 55 -61 55
-29 0 -29 -1 -29 -55z m71 24 c15 -29 -3 -69 -31 -69 -17 0 -20 7 -20 45 0 38
3 45 20 45 10 0 24 -10 31 -21z"/>
<path d="M3504 1575 c-4 -8 -4 -22 -1 -30 4 -8 2 -17 -3 -20 -18 -11 10 -46
33 -43 19 3 22 10 23 48 1 25 -4 48 -10 52 -18 12 -36 9 -42 -7z m42 -6 c10
-17 -13 -36 -27 -22 -12 12 -4 33 11 33 5 0 12 -5 16 -11z m-1 -59 c0 -8 -8
-16 -17 -18 -13 -2 -18 3 -18 18 0 15 5 20 18 18 9 -2 17 -10 17 -18z"/>
<path d="M3711 1533 c1 -40 3 -50 8 -33 5 18 15 26 34 28 55 7 41 62 -14 62
-29 0 -29 -1 -28 -57z m62 33 c7 -19 -1 -26 -30 -26 -22 0 -31 19 -16 33 11
12 41 7 46 -7z"/>
<path d="M3892 1578 c-17 -17 -15 -73 3 -88 34 -28 68 27 46 76 -12 26 -30 31
-49 12z m39 -22 c11 -24 -2 -66 -21 -66 -13 0 -23 38 -16 66 8 31 23 31 37 0z"/>
<path d="M4143 1583 c-7 -2 -13 -12 -13 -21 0 -13 2 -13 13 3 15 19 37 13 37
-9 0 -8 -11 -21 -25 -30 -36 -24 -33 -46 8 -45 l32 1 -29 7 -28 6 31 28 c26
23 30 31 21 47 -11 20 -23 23 -47 13z"/>
<path d="M4307 1584 c-4 -4 -7 -14 -7 -23 0 -12 3 -11 13 4 15 19 37 13 37
-10 0 -8 -9 -19 -20 -25 -11 -6 -24 -19 -30 -30 -10 -18 -8 -20 27 -19 30 2
32 3 11 6 -35 5 -35 16 -2 37 30 21 30 59 -1 64 -12 2 -24 0 -28 -4z"/>
<path d="M4387 1583 c-2 -4 -4 -28 -3 -53 1 -41 3 -45 26 -45 23 0 25 3 25 50
0 44 -3 50 -22 53 -11 2 -23 0 -26 -5z m39 -14 c10 -17 -13 -36 -27 -22 -12
12 -4 33 11 33 5 0 12 -5 16 -11z m4 -53 c0 -8 -5 -18 -11 -22 -14 -8 -33 11
-25 25 10 16 36 13 36 -3z"/>
<path d="M4600 1572 c0 -13 -7 -18 -21 -18 -12 1 -26 -7 -33 -16 -15 -25 4
-53 38 -54 25 -1 26 1 26 52 0 30 -2 54 -5 54 -3 0 -5 -8 -5 -18z m-2 -46 c6
-29 -15 -43 -35 -24 -14 14 -14 20 -3 33 16 19 34 15 38 -9z"/>
<path d="M4668 1573 c-2 -10 -1 -36 3 -58 l6 -40 2 35 c2 19 4 45 5 58 3 26
-10 30 -16 5z"/>
<path d="M4863 1583 c13 -3 17 -15 17 -54 0 -27 5 -49 10 -49 6 0 10 22 10 49
0 39 4 51 18 54 9 3 -3 5 -28 5 -25 0 -37 -2 -27 -5z"/>
<path d="M4968 1579 c-22 -12 -24 -71 -3 -89 9 -7 26 -9 45 -5 23 5 30 12 30
31 0 19 -5 24 -22 23 -18 -1 -19 -2 -5 -6 21 -5 18 -22 -5 -37 -37 -23 -66 46
-32 75 12 10 20 10 35 1 26 -16 34 -15 19 3 -14 17 -37 19 -62 4z"/>
<path d="M5343 1583 c31 -5 32 -8 12 -43 -8 -14 -14 -34 -14 -45 0 -12 7 -3
15 20 8 22 19 44 24 49 19 19 10 26 -27 25 -31 -2 -33 -3 -10 -6z"/>
<path d="M5530 1535 c0 -30 5 -55 10 -55 6 0 10 11 10 25 0 20 5 25 25 25 20
0 25 -5 25 -25 0 -14 5 -25 10 -25 6 0 10 25 10 55 0 30 -4 55 -10 55 -5 0
-10 -11 -10 -25 0 -20 -5 -25 -25 -25 -20 0 -25 5 -25 25 0 14 -4 25 -10 25
-5 0 -10 -25 -10 -55z"/>
<path d="M5641 1539 c-1 -55 0 -56 27 -55 24 1 27 5 27 36 0 28 -4 35 -20 35
-11 0 -23 9 -27 20 -3 12 -6 -4 -7 -36z m44 -19 c0 -27 -22 -39 -31 -16 -8 22
3 49 19 43 6 -2 12 -14 12 -27z"/>
<path d="M5720 1536 c0 -63 19 -78 22 -16 0 22 1 45 2 52 1 6 -5 13 -11 16
-10 3 -13 -12 -13 -52z"/>
<path d="M5800 1548 l-1 -43 -24 30 c-14 17 -25 27 -25 23 0 -13 42 -78 51
-78 5 0 9 25 9 55 0 30 -2 55 -5 55 -3 0 -5 -19 -5 -42z"/>
<path d="M5848 1579 c-12 -6 -18 -22 -18 -44 0 -39 19 -54 66 -53 26 1 29 5
32 36 4 57 -36 87 -80 61z m56 -15 c9 -8 16 -21 16 -27 0 -15 -20 -46 -20 -32
0 6 -5 3 -10 -5 -13 -20 -44 -1 -48 29 -7 43 32 65 62 35z"/>
<path d="M4778 1567 c-8 -23 7 -80 22 -85 12 -4 13 -2 3 9 -15 15 -17 56 -4
61 5 2 3 8 -4 15 -10 9 -14 9 -17 0z"/>
<path d="M2251 1501 c1 -32 4 -48 7 -36 4 11 16 20 26 20 51 0 43 69 -8 71
-25 1 -26 -1 -25 -55z m49 33 c11 -12 11 -18 -2 -31 -19 -18 -38 -10 -38 16 0
33 20 40 40 15z"/>
<path d="M2853 1544 c3 -11 8 -29 12 -41 8 -28 25 -30 25 -4 0 11 5 23 10 26
6 3 10 -3 10 -14 0 -33 17 -33 29 1 15 43 12 60 -4 23 l-13 -30 -7 28 c-8 31
-25 37 -25 8 0 -11 -4 -23 -10 -26 -5 -3 -10 3 -10 14 0 11 -5 23 -11 27 -7 4
-9 0 -6 -12z"/>
<path d="M3070 1545 c-26 -31 13 -82 44 -56 19 16 21 42 4 59 -16 16 -33 15
-48 -3z m45 -25 c0 -15 -6 -26 -16 -28 -19 -3 -31 21 -22 43 9 25 38 13 38
-15z"/>
<path d="M3231 1501 c1 -32 4 -48 7 -36 4 11 16 20 26 20 51 0 43 69 -8 71
-25 1 -26 -1 -25 -55z m54 19 c0 -15 -6 -26 -16 -28 -19 -3 -31 21 -22 43 9
25 38 13 38 -15z"/>
<path d="M3315 1543 c16 -42 18 -75 4 -84 -11 -7 -11 -9 -1 -9 14 0 52 74 51
100 0 8 -6 2 -13 -15 l-14 -30 -11 28 c-6 15 -13 27 -17 27 -3 0 -3 -8 1 -17z"/>
<path d="M3581 1516 l1 -41 8 33 c4 18 10 35 13 39 12 11 27 -10 28 -40 l2
-32 6 34 c8 48 31 53 31 7 0 -20 5 -36 10 -36 12 0 13 50 2 66 -4 6 -28 11
-54 11 l-48 -1 1 -40z"/>
<path d="M3810 1553 c0 -6 5 -15 11 -18 7 -5 5 -15 -6 -31 -8 -13 -11 -24 -6
-24 5 0 12 7 15 17 6 14 8 14 21 -3 8 -10 15 -14 15 -8 0 5 -5 15 -12 22 -9 9
-9 15 0 24 7 7 12 17 12 23 0 5 -7 2 -14 -8 -14 -18 -15 -18 -25 0 -6 10 -11
13 -11 6z"/>
<path d="M3961 1501 c0 -37 3 -49 8 -36 5 12 17 20 32 20 20 0 25 6 27 33 2
17 0 33 -5 34 -4 0 -20 2 -35 3 -28 2 -28 1 -27 -54z m54 19 c0 -27 -22 -39
-31 -16 -8 22 3 49 19 43 6 -2 12 -14 12 -27z"/>
<path d="M4052 1543 c-15 -28 3 -65 30 -61 12 2 24 10 26 18 5 13 3 13 -11 2
-9 -8 -21 -11 -27 -7 -19 11 -10 25 16 25 19 0 25 5 22 18 -4 24 -44 28 -56 5z
m43 -3 c3 -5 -3 -10 -15 -10 -12 0 -18 5 -15 10 3 6 10 10 15 10 5 0 12 -4 15
-10z"/>
<path d="M4222 1522 c-2 -41 -1 -42 28 -40 28 2 30 5 29 43 -1 41 -3 40 -13
-7 -9 -42 -34 -35 -39 10 l-4 37 -1 -43z"/>
<path d="M4472 1522 c-2 -41 -1 -42 28 -40 28 2 30 5 29 43 -1 41 -3 40 -13
-7 -9 -42 -34 -35 -39 10 l-4 37 -1 -43z"/>
<path d="M4633 1520 c0 -25 2 -35 4 -22 2 12 2 32 0 45 -2 12 -4 2 -4 -23z"/>
<path d="M4718 1553 c27 -5 28 -15 2 -38 -28 -26 -25 -35 13 -34 28 1 29 2 9
8 l-24 6 21 27 c28 35 27 38 -11 37 -24 -1 -27 -3 -10 -6z"/>
<path d="M4818 1505 c-1 -30 0 -55 5 -55 4 0 7 25 7 55 0 71 -7 71 -12 0z"/>
<path d="M5061 1556 c-1 -5 4 -26 11 -48 10 -33 9 -41 -3 -49 -10 -6 -11 -9
-1 -9 13 0 34 42 45 90 6 23 5 22 -5 -2 -7 -16 -15 -28 -18 -28 -3 0 -11 12
-17 28 -6 15 -11 23 -12 18z"/>
<path d="M5133 1544 c3 -11 8 -29 12 -41 8 -28 25 -30 25 -4 0 11 5 23 10 26
6 3 10 -3 10 -14 0 -33 17 -33 29 1 15 43 12 60 -4 23 l-13 -30 -7 28 c-8 31
-25 37 -25 8 0 -11 -4 -23 -10 -26 -5 -3 -10 3 -10 14 0 11 -5 23 -11 27 -7 4
-9 0 -6 -12z"/>
<path d="M5250 1540 c-8 -14 -8 -26 0 -40 13 -24 33 -26 51 -3 13 15 12 15 -9
2 -20 -12 -24 -12 -32 0 -12 20 7 54 26 47 9 -3 12 -1 9 4 -10 17 -34 11 -45
-10z"/>
<path d="M5411 1516 c2 -34 3 -36 6 -11 3 17 9 35 14 41 5 7 3 11 -6 11 -11 0
-15 -11 -14 -41z"/>
<path d="M5456 1545 c-4 -10 3 -20 19 -27 34 -15 32 -32 -2 -23 -21 5 -25 4
-17 -5 7 -7 20 -10 30 -8 26 5 29 34 4 41 -11 3 -20 10 -20 17 0 7 8 9 21 5
15 -5 19 -4 15 4 -10 16 -43 13 -50 -4z"/>
<path d="M5951 1516 l2 -41 6 35 c4 22 12 35 21 35 9 0 18 -13 22 -35 l6 -35
-1 40 c-2 36 -5 40 -29 41 -26 1 -28 -1 -27 -40z"/>
<path d="M2152 1353 c-4 -10 -5 -36 -1 -58 l6 -40 2 37 c0 20 7 39 14 41 9 4
8 6 -2 6 -11 1 -11 4 -1 16 8 10 9 15 2 15 -6 0 -15 -8 -20 -17z"/>
<path d="M2532 1315 c0 -51 1 -55 8 -27 4 19 4 46 0 60 -6 21 -8 13 -8 -33z"/>
<path d="M3279 1331 c-9 -32 -9 -46 1 -71 7 -17 15 -29 17 -27 2 3 -2 16 -8
31 -9 20 -10 35 -1 63 6 20 10 39 7 41 -2 2 -9 -14 -16 -37z"/>
<path d="M3332 1358 c-7 -7 -12 -26 -12 -43 0 -35 15 -55 41 -55 19 0 53 29
44 38 -3 3 -12 -3 -20 -14 -18 -24 -49 -9 -53 28 -4 34 23 56 49 40 10 -7 19
-8 19 -3 0 20 -50 27 -68 9z"/>
<path d="M3433 1315 c0 -33 2 -45 4 -27 2 18 2 45 0 60 -2 15 -4 0 -4 -33z"/>
<path d="M3753 1315 c0 -33 2 -45 4 -27 2 18 2 45 0 60 -2 15 -4 0 -4 -33z"/>
<path d="M3791 1313 c1 -32 4 -46 6 -30 4 22 9 27 33 27 31 0 47 25 29 46 -6
8 -24 14 -40 14 -29 0 -29 0 -28 -57z m57 25 c3 -13 -3 -18 -22 -18 -20 0 -26
5 -26 21 0 15 5 20 22 17 13 -2 24 -11 26 -20z"/>
<path d="M4060 1352 c0 -13 -7 -18 -22 -18 -20 1 -23 -4 -23 -34 0 -31 3 -35
28 -36 26 -1 27 1 27 52 0 30 -2 54 -5 54 -3 0 -5 -8 -5 -18z m-5 -52 c0 -13
-6 -25 -12 -27 -16 -6 -27 21 -19 43 9 23 31 11 31 -16z"/>
<path d="M4148 1353 c-2 -11 -13 -18 -28 -18 -22 0 -25 -4 -25 -35 0 -33 2
-35 33 -35 l32 -1 0 53 c0 53 -5 69 -12 36z m-13 -53 c0 -27 -22 -39 -31 -16
-8 22 3 49 19 43 6 -2 12 -14 12 -27z"/>
<path d="M2488 1347 c-8 -23 7 -80 22 -85 12 -4 13 -2 3 9 -15 15 -17 56 -4
61 5 2 3 8 -4 15 -10 9 -14 9 -17 0z"/>
<path d="M3658 1347 c-8 -23 7 -80 22 -85 12 -4 13 -2 3 9 -15 15 -17 56 -4
61 5 2 3 8 -4 15 -10 9 -14 9 -17 0z"/>
<path d="M2191 1295 c2 -33 3 -35 6 -10 2 17 11 35 20 42 13 10 13 12 -6 10
-18 -1 -21 -7 -20 -42z"/>
<path d="M2244 1326 c-3 -8 -4 -25 -2 -38 2 -17 9 -23 28 -23 22 0 25 4 25 35
0 29 -4 36 -23 38 -13 2 -24 -3 -28 -12z m41 -26 c0 -13 -6 -25 -12 -27 -16
-6 -27 21 -19 43 9 23 31 11 31 -16z"/>
<path d="M2321 1296 l1 -41 8 33 c4 18 10 35 13 39 12 11 27 -10 28 -40 l2
-32 6 34 c8 48 31 53 31 7 0 -20 5 -36 10 -36 12 0 13 50 2 66 -4 6 -28 11
-54 11 l-48 -1 1 -40z"/>
<path d="M2567 1332 c6 -4 13 -23 16 -42 4 -33 4 -33 5 8 2 34 -1 42 -15 42
-12 0 -14 -3 -6 -8z"/>
<path d="M2623 1300 c0 -25 2 -35 4 -22 2 12 2 32 0 45 -2 12 -4 2 -4 -23z"/>
<path d="M2657 1333 c-13 -13 -7 -31 13 -36 11 -3 20 -11 20 -17 0 -8 -8 -10
-21 -7 -16 4 -19 3 -11 -5 14 -14 42 -3 42 16 0 8 -9 18 -20 21 -26 8 -26 29
0 22 11 -3 18 -1 14 4 -6 11 -28 12 -37 2z"/>
<path d="M2766 1325 c-4 -10 3 -20 19 -27 34 -15 32 -32 -2 -23 -21 5 -25 4
-17 -5 7 -7 20 -10 30 -8 26 5 29 34 4 41 -11 3 -20 10 -20 17 0 7 8 9 21 5
15 -5 19 -4 15 4 -10 16 -43 13 -50 -4z"/>
<path d="M2853 1333 c-21 -8 -16 -61 7 -68 22 -7 40 1 40 17 0 7 -5 6 -15 -2
-8 -6 -19 -9 -25 -5 -20 12 -10 25 20 25 28 0 30 2 20 20 -11 20 -23 23 -47
13z m37 -13 c0 -5 -9 -10 -21 -10 -11 0 -17 5 -14 10 3 6 13 10 21 10 8 0 14
-4 14 -10z"/>
<path d="M2921 1300 l1 -45 8 35 c5 20 5 39 -1 45 -5 5 -9 -8 -8 -35z"/>
<path d="M2971 1334 c-2 -17 20 -74 28 -74 9 0 34 70 27 77 -3 3 -8 -6 -12
-21 -8 -33 -17 -33 -31 2 -6 15 -11 22 -12 16z"/>
<path d="M3052 1323 c-15 -28 3 -65 30 -61 12 2 24 10 26 18 5 13 3 13 -11 2
-9 -8 -21 -11 -27 -7 -19 11 -10 25 16 25 19 0 25 5 22 18 -4 24 -44 28 -56 5z
m43 -3 c3 -5 -3 -10 -15 -10 -12 0 -18 5 -15 10 3 6 10 10 15 10 5 0 12 -4 15
-10z"/>
<path d="M3131 1295 c2 -33 3 -35 6 -10 2 17 11 35 20 42 13 10 13 12 -6 10
-18 -1 -21 -7 -20 -42z"/>
<path d="M3463 1300 c0 -25 2 -35 4 -22 2 12 2 32 0 45 -2 12 -4 2 -4 -23z"/>
<path d="M3502 1328 c-16 -16 -15 -43 3 -58 17 -14 45 -7 45 12 0 10 -3 9 -9
-1 -5 -8 -16 -11 -25 -8 -27 10 -18 27 14 27 17 0 30 4 30 8 0 12 -22 32 -35
32 -6 0 -16 -5 -23 -12z m43 -8 c4 -6 -5 -10 -20 -10 -15 0 -24 4 -20 10 3 6
12 10 20 10 8 0 17 -4 20 -10z"/>
<path d="M3581 1296 l2 -41 6 35 c4 22 12 35 21 35 9 0 18 -13 22 -35 l6 -35
-1 40 c-2 36 -5 40 -29 41 -26 1 -28 -1 -27 -40z"/>
<path d="M3935 1330 c-5 -9 -1 -10 13 -6 11 4 23 2 27 -4 3 -5 0 -10 -7 -10
-10 0 -10 -2 1 -9 16 -11 6 -31 -16 -31 -9 0 -13 6 -9 15 3 8 1 15 -4 15 -6 0
-10 -9 -10 -20 0 -16 6 -19 33 -18 33 1 33 2 28 37 -5 27 -12 37 -28 39 -11 2
-24 -2 -28 -8z"/>
<path d="M4181 1296 c2 -34 3 -36 6 -11 3 17 9 35 14 41 5 7 3 11 -6 11 -11 0
-15 -11 -14 -41z"/>
<path d="M4230 1325 c-15 -18 -10 -45 12 -59 14 -8 21 -7 35 9 17 18 17 18 0
5 -15 -11 -20 -11 -35 3 -15 16 -14 17 16 17 34 0 45 23 16 34 -23 9 -30 8
-44 -9z m45 -5 c3 -5 -3 -10 -14 -10 -12 0 -21 5 -21 10 0 6 6 10 14 10 8 0
18 -4 21 -10z"/>
<path d="M4317 1333 c-15 -14 -6 -31 18 -37 15 -4 23 -11 19 -17 -3 -6 -15 -8
-27 -5 -14 3 -17 2 -9 -6 11 -11 52 -2 52 13 0 5 -11 14 -25 21 -25 11 -24 34
2 24 8 -3 11 -1 8 4 -7 11 -28 13 -38 3z"/>
<path d="M4386 1325 c-4 -10 3 -20 19 -27 34 -15 32 -32 -2 -23 -21 5 -25 4
-17 -5 7 -7 20 -10 30 -8 26 5 29 34 4 41 -11 3 -20 10 -20 17 0 7 8 9 21 5
15 -5 19 -4 15 4 -10 16 -43 13 -50 -4z"/>
<path d="M2163 1143 c-7 -2 -13 -12 -13 -21 0 -13 2 -13 13 3 15 19 37 13 37
-9 0 -8 -11 -21 -25 -30 -36 -24 -33 -46 8 -45 l32 1 -29 7 -28 6 31 28 c26
23 30 31 21 47 -11 20 -23 23 -47 13z"/>
<path d="M2244 1138 c-5 -7 -10 -30 -11 -50 -2 -30 1 -38 18 -43 26 -9 55 17
43 36 -4 8 -8 25 -8 39 -1 27 -29 40 -42 18z m34 -21 c2 -10 -3 -17 -12 -17
-10 0 -16 9 -16 21 0 24 23 21 28 -4z m10 -44 c5 -17 -26 -29 -40 -15 -6 6 -7
15 -3 22 9 14 37 9 43 -7z"/>
<path d="M2319 1126 c-14 -29 -4 -75 16 -83 23 -8 45 16 45 51 0 55 -41 76
-61 32z m46 -7 c8 -25 -2 -69 -15 -69 -19 0 -33 46 -21 69 15 27 28 27 36 0z"/>
<path d="M2418 1118 c-34 -45 -34 -48 -4 -48 15 0 26 -7 28 -17 7 -34 14 19 8
61 l-5 40 -27 -36z m22 -18 c0 -11 -7 -20 -15 -20 -18 0 -19 12 -3 28 16 16
18 15 18 -8z"/>
<path d="M2628 1118 c-34 -45 -34 -48 -4 -48 15 0 26 -7 28 -17 7 -34 14 19 8
61 l-5 40 -27 -36z m22 -18 c0 -11 -7 -20 -15 -20 -18 0 -19 12 -3 28 16 16
18 15 18 -8z"/>
<path d="M2810 1121 c0 -24 3 -28 20 -24 23 6 39 -22 22 -39 -8 -8 -15 -8 -27
2 -9 8 -15 8 -15 2 0 -17 18 -24 41 -17 29 10 23 59 -9 63 -29 4 -24 24 9 33
21 6 21 7 -8 8 -30 1 -33 -2 -33 -28z"/>
<path d="M2891 1100 c-1 -53 0 -56 24 -58 33 -2 55 39 35 63 -8 9 -22 14 -31
12 -12 -3 -19 2 -22 17 -2 11 -5 -4 -6 -34z m49 -6 c11 -12 11 -18 -2 -31 -19
-18 -38 -10 -38 16 0 33 20 40 40 15z"/>
<path d="M2971 1099 c-1 -54 0 -56 25 -55 51 2 59 71 8 71 -10 0 -22 9 -26 20
-3 12 -6 -4 -7 -36z m54 -19 c0 -28 -29 -40 -38 -15 -9 22 3 46 22 43 10 -2
16 -13 16 -28z"/>
<path d="M3067 1144 c-4 -4 -7 -14 -7 -23 0 -12 3 -11 13 4 15 19 37 13 37
-10 0 -8 -9 -19 -20 -25 -11 -6 -24 -19 -30 -30 -10 -18 -8 -20 27 -19 30 2
32 3 11 6 -35 5 -35 16 -2 37 30 21 30 59 -1 64 -12 2 -24 0 -28 -4z"/>
<path d="M3194 1138 c-5 -7 -10 -30 -11 -50 -2 -30 1 -38 18 -43 26 -9 55 17
43 36 -4 8 -8 25 -8 39 -1 27 -29 40 -42 18z m34 -21 c2 -10 -3 -17 -12 -17
-10 0 -16 9 -16 21 0 24 23 21 28 -4z m10 -44 c5 -17 -26 -29 -40 -15 -6 6 -7
15 -3 22 9 14 37 9 43 -7z"/>
<path d="M3286 1135 c-11 -8 -14 -15 -8 -15 7 0 12 -16 12 -40 0 -22 5 -40 10
-40 6 0 10 25 10 55 0 30 -1 55 -2 55 -2 0 -12 -7 -22 -15z"/>
<path d="M3372 1135 c-7 -8 -8 -15 -3 -15 5 0 12 -19 14 -42 3 -37 4 -35 5 15
1 31 1 57 0 57 -2 -1 -9 -7 -16 -15z"/>
<path d="M3452 1135 c-7 -8 -8 -15 -3 -15 5 0 12 -19 14 -42 3 -37 4 -35 5 15
1 31 1 57 0 57 -2 -1 -9 -7 -16 -15z"/>
<path d="M3560 1121 c0 -24 3 -28 20 -24 24 6 39 -22 21 -40 -9 -9 -17 -8 -34
2 -21 13 -21 13 -4 -5 13 -15 21 -16 35 -8 26 17 22 58 -5 62 -32 5 -29 30 5
35 25 4 25 4 -5 6 -30 1 -33 -2 -33 -28z"/>
<path d="M3719 1126 c-14 -29 -4 -75 16 -83 23 -8 45 16 45 51 0 55 -41 76
-61 32z m46 -7 c8 -25 -2 -69 -15 -69 -19 0 -33 46 -21 69 15 27 28 27 36 0z"/>
<path d="M3823 1143 c31 -5 32 -6 13 -36 -8 -12 -17 -33 -20 -47 -4 -14 5 -2
18 25 14 28 26 53 26 58 0 4 -15 6 -32 6 -31 -2 -31 -2 -5 -6z"/>
<path d="M4023 1115 c-28 -42 -28 -45 -3 -45 11 0 20 -7 20 -15 0 -21 18 -19
22 2 5 25 -3 93 -11 93 -3 0 -16 -16 -28 -35z m17 -15 c0 -11 -7 -20 -15 -20
-13 0 -13 3 -3 20 7 11 14 20 15 20 2 0 3 -9 3 -20z"/>
<path d="M4092 1133 c-4 -10 -5 -36 -1 -58 l6 -40 2 37 c0 20 7 39 14 41 9 4
8 6 -2 6 -11 1 -11 4 -1 16 8 10 9 15 2 15 -6 0 -15 -8 -20 -17z"/>
<path d="M4137 1143 c-2 -4 -4 -28 -3 -53 1 -41 3 -45 26 -45 23 0 25 3 25 50
0 44 -3 50 -22 53 -11 2 -23 0 -26 -5z m39 -14 c10 -17 -13 -36 -27 -22 -12
12 -4 33 11 33 5 0 12 -5 16 -11z m4 -53 c0 -8 -5 -18 -11 -22 -14 -8 -33 11
-25 25 10 16 36 13 36 -3z"/>
<path d="M4260 1135 c-9 -10 -9 -15 -1 -15 6 0 11 5 11 10 0 6 7 10 15 10 17
0 20 -26 4 -35 -6 -5 -4 -12 8 -20 15 -11 16 -16 5 -27 -10 -10 -17 -10 -35 1
-21 13 -21 13 -4 -5 25 -26 52 -7 53 37 1 54 -29 77 -56 44z"/>
<path d="M4363 1143 c31 -5 32 -6 13 -36 -8 -12 -17 -33 -20 -47 -4 -14 5 -2
18 25 14 28 26 53 26 58 0 4 -15 6 -32 6 -31 -2 -31 -2 -5 -6z"/>
<path d="M4507 1143 c-14 -13 -6 -25 8 -13 13 10 18 11 28 1 9 -10 8 -15 -7
-27 -17 -12 -18 -14 -3 -14 9 0 17 -7 17 -15 0 -21 -30 -31 -42 -14 -8 12 -9
11 -5 -1 2 -8 15 -15 28 -15 22 0 24 4 25 45 1 43 -8 60 -32 60 -6 0 -14 -3
-17 -7z"/>
<path d="M4727 1143 l33 -4 -20 -39 c-11 -22 -20 -45 -20 -52 0 -7 11 11 25
40 14 30 25 56 25 58 0 2 -17 3 -37 2 -37 -1 -37 -1 -6 -5z"/>
<path d="M4797 1144 c-4 -4 -7 -14 -7 -23 0 -12 3 -11 13 4 15 19 37 13 37
-10 0 -8 -9 -19 -20 -25 -11 -6 -24 -19 -30 -30 -10 -18 -8 -20 27 -19 30 2
32 3 11 6 -35 5 -35 16 -2 37 30 21 30 59 -1 64 -12 2 -24 0 -28 -4z"/>
<path d="M4959 1133 c6 -12 11 -36 11 -53 0 -17 -5 -41 -11 -53 -10 -21 -10
-21 5 -3 9 11 16 36 16 56 0 20 -7 45 -16 56 -15 18 -15 18 -5 -3z"/>
<path d="M2540 1130 c-9 -6 -10 -10 -3 -10 7 0 14 -19 16 -42 3 -41 4 -41 5
10 1 28 1 52 0 52 -2 0 -10 -5 -18 -10z"/>
<path d="M4640 1130 c-9 -6 -10 -10 -3 -10 7 0 14 -19 16 -42 3 -41 4 -41 5
10 1 28 1 52 0 52 -2 0 -10 -5 -18 -10z"/>
<path d="M2694 1106 c-12 -31 0 -61 25 -61 13 0 27 7 29 15 4 13 3 13 -11 2
-19 -16 -37 -8 -37 18 0 26 18 34 37 18 14 -11 16 -11 11 2 -6 20 -47 25 -54
6z"/>
<path d="M3644 1106 c-12 -31 0 -61 25 -61 13 0 27 7 29 15 4 13 3 13 -11 2
-19 -16 -37 -8 -37 18 0 26 18 34 37 18 14 -11 16 -11 11 2 -6 20 -47 25 -54
6z"/>
<path d="M3936 1111 c-3 -5 3 -7 14 -4 11 3 20 0 20 -6 0 -6 -6 -11 -12 -11
-9 0 -8 -3 2 -10 11 -7 12 -12 3 -21 -13 -13 -37 -3 -28 12 4 5 1 9 -5 9 -6 0
-10 -8 -8 -17 2 -12 13 -18 34 -18 29 -1 30 1 24 35 -5 34 -31 53 -44 31z"/>
<path d="M4432 1108 c-19 -19 -15 -56 8 -63 22 -7 40 1 40 17 0 7 -5 6 -15 -2
-18 -15 -35 -5 -35 20 0 26 18 34 37 18 14 -11 15 -11 11 2 -6 20 -30 24 -46
8z"/>
<path d="M4882 1108 c-16 -16 -15 -43 3 -58 17 -14 45 -7 45 12 0 10 -3 9 -9
-1 -5 -8 -16 -11 -25 -8 -27 10 -18 27 14 27 17 0 30 4 30 8 0 12 -22 32 -35
32 -6 0 -16 -5 -23 -12z m43 -8 c4 -6 -5 -10 -20 -10 -15 0 -24 4 -20 10 3 6
12 10 20 10 8 0 17 -4 20 -10z"/>
<path d="M2150 655 c0 -30 5 -55 10 -55 6 0 10 11 10 24 0 19 6 26 28 29 l27
4 -27 2 c-21 1 -28 6 -28 20 0 15 8 21 33 24 28 3 26 4 -10 5 l-43 2 0 -55z"/>
<path d="M2371 659 c-1 -54 0 -56 25 -55 51 2 59 71 8 71 -10 0 -22 9 -26 20
-3 12 -6 -4 -7 -36z m54 -19 c0 -28 -29 -40 -38 -15 -9 22 3 46 22 43 10 -2
16 -13 16 -28z"/>
<path d="M2540 692 c0 -13 -7 -18 -22 -18 -20 1 -23 -4 -23 -34 0 -31 3 -35
28 -36 26 -1 27 1 27 52 0 30 -2 54 -5 54 -3 0 -5 -8 -5 -18z m-5 -52 c0 -13
-6 -25 -12 -27 -16 -6 -27 21 -19 43 9 23 31 11 31 -16z"/>
<path d="M2628 693 c-2 -11 -13 -18 -28 -18 -22 0 -25 -4 -25 -35 0 -33 2 -35
33 -35 l32 -1 0 53 c0 53 -5 69 -12 36z m-13 -53 c0 -13 -6 -25 -12 -27 -16
-6 -27 21 -19 43 9 23 31 11 31 -16z"/>
<path d="M2882 703 c13 -3 18 -18 21 -56 l3 -52 2 52 c2 40 6 53 20 56 9 3 -1
5 -23 5 -22 0 -32 -2 -23 -5z"/>
<path d="M2963 655 c0 -33 2 -45 4 -27 2 18 2 45 0 60 -2 15 -4 0 -4 -33z"/>
<path d="M3129 689 c-2 -29 3 -74 9 -81 4 -4 6 13 5 38 -1 43 -12 74 -14 43z"/>
<path d="M2244 666 c-3 -8 -4 -25 -2 -38 2 -17 9 -23 28 -23 22 0 25 4 25 35
0 29 -4 36 -23 38 -13 2 -24 -3 -28 -12z m41 -26 c0 -27 -22 -39 -31 -16 -8
22 3 49 19 43 6 -2 12 -14 12 -27z"/>
<path d="M2321 640 l1 -45 8 35 c5 20 5 39 -1 45 -5 5 -9 -8 -8 -35z"/>
<path d="M2463 640 c0 -25 2 -35 4 -22 2 12 2 32 0 45 -2 12 -4 2 -4 -23z"/>
<path d="M2662 663 c-15 -28 3 -65 30 -61 12 2 24 10 26 18 5 13 3 13 -11 2
-9 -8 -21 -11 -27 -7 -19 11 -10 25 16 25 19 0 25 5 22 18 -4 24 -44 28 -56 5z
m43 -3 c3 -5 -3 -10 -15 -10 -12 0 -18 5 -15 10 3 6 10 10 15 10 5 0 12 -4 15
-10z"/>
<path d="M2741 636 l2 -41 6 35 c4 22 12 35 21 35 9 0 18 -13 22 -35 l6 -35
-1 40 c-2 36 -5 40 -29 41 -26 1 -28 -1 -27 -40z"/>
<path d="M3546 663 c-6 -14 -5 -15 5 -6 7 7 10 15 7 18 -3 3 -9 -2 -12 -12z"/>
<path d="M3823 640 c0 -25 2 -35 4 -22 2 12 2 32 0 45 -2 12 -4 2 -4 -23z"/>
<path d="M4020 671 c0 -5 5 -13 10 -16 6 -3 10 -2 10 4 0 5 -4 13 -10 16 -5 3
-10 2 -10 -4z"/>
<path d="M3013 635 c0 -22 2 -30 4 -17 2 12 2 30 0 40 -3 9 -5 -1 -4 -23z"/>
<path d="M3091 654 c0 -11 3 -14 6 -6 3 7 2 16 -1 19 -3 4 -6 -2 -5 -13z"/>
<path d="M3645 650 l-30 -8 33 -1 c17 0 32 4 32 9 0 6 -1 9 -2 9 -2 -1 -16 -5
-33 -9z"/>
<path d="M3872 630 c0 -19 2 -27 5 -17 2 9 2 25 0 35 -3 9 -5 1 -5 -18z"/>
<path d="M3090 621 c0 -6 4 -13 10 -16 6 -3 7 1 4 9 -7 18 -14 21 -14 7z"/>
<path d="M3575 619 c-4 -6 -5 -12 -2 -15 2 -3 7 2 10 11 7 17 1 20 -8 4z"/>
<path d="M4040 620 c0 -5 5 -10 11 -10 5 0 7 5 4 10 -3 6 -8 10 -11 10 -2 0
-4 -4 -4 -10z"/>
</g>
</svg>
